<svg xmlns="http://www.w3.org/2000/svg" width="27.168" height="28.068" viewBox="0 0 27.168 28.068">
  <g id="angle-double-right" transform="translate(27.534 -5.766) rotate(180)">
    <path id="패스_6" data-name="패스 6" d="M16.734-31.5a.889.889,0,0,0-.281-.647l-1.406-1.406a.889.889,0,0,0-.647-.281.889.889,0,0,0-.647.281L.647-20.447a.889.889,0,0,0-.281.647.889.889,0,0,0,.281.647L13.753-6.047a.889.889,0,0,0,.647.281.889.889,0,0,0,.647-.281l1.406-1.406a.889.889,0,0,0,.281-.647.889.889,0,0,0-.281-.647L5.4-19.8,16.453-30.853a.889.889,0,0,0,.281-.647Zm10.8,0a.889.889,0,0,0-.281-.647l-1.406-1.406a.889.889,0,0,0-.647-.281.889.889,0,0,0-.647.281L11.447-20.447a.889.889,0,0,0-.281.647.889.889,0,0,0,.281.647L24.553-6.047a.889.889,0,0,0,.647.281.889.889,0,0,0,.647-.281l1.406-1.406a.889.889,0,0,0,.281-.647.889.889,0,0,0-.281-.647L16.2-19.8,27.253-30.853a.889.889,0,0,0,.281-.647Z"/>
  </g>
</svg>
